<?xml version="1.0" encoding="utf-8"?>
<!-- Generator: Adobe Illustrator 17.0.0, SVG Export Plug-In . SVG Version: 6.00 Build 0)  -->
<!DOCTYPE svg PUBLIC "-//W3C//DTD SVG 1.1//EN" "http://www.w3.org/Graphics/SVG/1.1/DTD/svg11.dtd">
<svg version="1.1" id="Layer_1" xmlns="http://www.w3.org/2000/svg" xmlns:xlink="http://www.w3.org/1999/xlink" x="0px" y="0px"
	 width="288.906px" height="28.08px" viewBox="0 0 288.906 28.08" enable-background="new 0 0 288.906 28.08" xml:space="preserve">
<g>
	<path fill="#0084CB" d="M0,9.512h4.976v0.879H0.972v2.178h3.521v0.854H0.972v3.261H0V9.512z"/>
	<path fill="#0084CB" d="M9.688,11.977c0.462,0.449,0.693,1.109,0.693,1.98c0,0.842-0.204,1.539-0.611,2.088
		c-0.407,0.55-1.04,0.824-1.896,0.824c-0.714,0-1.282-0.243-1.702-0.729c-0.42-0.485-0.63-1.139-0.63-1.958
		c0-0.878,0.221-1.578,0.664-2.098c0.443-0.521,1.038-0.781,1.785-0.781C8.66,11.304,9.225,11.528,9.688,11.977z M9.142,15.452
		c0.214-0.44,0.321-0.931,0.321-1.471c0-0.487-0.077-0.884-0.232-1.19c-0.245-0.481-0.666-0.722-1.265-0.722
		c-0.531,0-0.917,0.205-1.159,0.615c-0.242,0.41-0.362,0.904-0.362,1.482c0,0.556,0.121,1.019,0.362,1.39
		c0.241,0.37,0.624,0.556,1.149,0.556C8.533,16.113,8.928,15.893,9.142,15.452z"/>
	<path fill="#0084CB" d="M11.484,11.455h0.835v0.903c0.068-0.176,0.236-0.39,0.503-0.642s0.575-0.378,0.923-0.378
		c0.016,0,0.044,0.001,0.083,0.005s0.106,0.01,0.2,0.02v0.928c-0.052-0.01-0.1-0.016-0.144-0.02s-0.092-0.005-0.144-0.005
		c-0.443,0-0.783,0.143-1.021,0.427s-0.356,0.613-0.356,0.984v3.007h-0.879V11.455z"/>
	<path fill="#0084CB" d="M17.744,9.995h0.889v1.46h0.835v0.718h-0.835v3.413c0,0.183,0.062,0.305,0.186,0.366
		c0.068,0.036,0.182,0.054,0.342,0.054c0.042,0,0.088-0.001,0.137-0.003s0.106-0.008,0.171-0.017v0.698
		c-0.101,0.029-0.206,0.051-0.315,0.063c-0.109,0.014-0.227,0.02-0.354,0.02c-0.41,0-0.688-0.104-0.835-0.314
		s-0.22-0.482-0.22-0.818v-3.461h-0.708v-0.718h0.708V9.995z"/>
	<path fill="#0084CB" d="M20.347,9.487h0.879v2.676c0.208-0.264,0.396-0.449,0.562-0.557c0.283-0.186,0.636-0.278,1.06-0.278
		c0.758,0,1.273,0.265,1.543,0.796c0.146,0.29,0.22,0.692,0.22,1.206v3.354h-0.903v-3.295c0-0.384-0.049-0.666-0.146-0.845
		c-0.16-0.287-0.459-0.43-0.898-0.43c-0.365,0-0.695,0.125-0.991,0.376s-0.444,0.724-0.444,1.421v2.773h-0.879V9.487z"/>
	<path fill="#0084CB" d="M29.697,11.977c0.462,0.449,0.693,1.109,0.693,1.98c0,0.842-0.204,1.539-0.611,2.088
		c-0.407,0.55-1.04,0.824-1.896,0.824c-0.714,0-1.282-0.243-1.702-0.729c-0.42-0.485-0.63-1.139-0.63-1.958
		c0-0.878,0.221-1.578,0.664-2.098c0.443-0.521,1.038-0.781,1.785-0.781C28.669,11.304,29.235,11.528,29.697,11.977z M29.151,15.452
		c0.214-0.44,0.321-0.931,0.321-1.471c0-0.487-0.077-0.884-0.232-1.19c-0.245-0.481-0.666-0.722-1.265-0.722
		c-0.531,0-0.917,0.205-1.159,0.615c-0.242,0.41-0.362,0.904-0.362,1.482c0,0.556,0.121,1.019,0.362,1.39
		c0.241,0.37,0.624,0.556,1.149,0.556C28.542,16.113,28.938,15.893,29.151,15.452z"/>
	<path fill="#0084CB" d="M31.992,15.044c0.026,0.293,0.101,0.517,0.224,0.673c0.226,0.283,0.618,0.425,1.176,0.425
		c0.332,0,0.625-0.07,0.877-0.212s0.379-0.36,0.379-0.657c0-0.225-0.101-0.396-0.303-0.513c-0.129-0.072-0.384-0.155-0.764-0.249
		l-0.709-0.176c-0.453-0.111-0.788-0.234-1.002-0.371c-0.384-0.238-0.576-0.566-0.576-0.986c0-0.495,0.181-0.895,0.542-1.201
		c0.361-0.306,0.847-0.459,1.457-0.459c0.798,0,1.374,0.231,1.727,0.693c0.221,0.293,0.328,0.609,0.322,0.947h-0.83
		c-0.017-0.197-0.088-0.377-0.215-0.539c-0.207-0.23-0.565-0.345-1.075-0.345c-0.34,0-0.597,0.063-0.772,0.19
		c-0.175,0.126-0.262,0.293-0.262,0.501c0,0.227,0.115,0.409,0.345,0.545c0.133,0.081,0.329,0.152,0.587,0.214l0.592,0.142
		c0.644,0.153,1.075,0.301,1.293,0.444c0.342,0.225,0.513,0.578,0.513,1.06c0,0.465-0.179,0.868-0.537,1.206
		c-0.357,0.339-0.902,0.508-1.634,0.508c-0.788,0-1.345-0.177-1.673-0.529c-0.328-0.354-0.503-0.79-0.526-1.311H31.992z"/>
	<path fill="#0084CB" d="M39.7,11.599c0.346,0.174,0.61,0.399,0.791,0.676c0.175,0.264,0.292,0.571,0.35,0.923
		c0.052,0.241,0.078,0.625,0.078,1.152h-3.804c0.016,0.532,0.141,0.959,0.373,1.28c0.232,0.322,0.593,0.482,1.081,0.482
		c0.455,0,0.818-0.151,1.09-0.456c0.152-0.176,0.259-0.38,0.323-0.613h0.864c-0.023,0.192-0.099,0.406-0.227,0.642
		c-0.128,0.235-0.272,0.429-0.43,0.578c-0.265,0.261-0.593,0.437-0.984,0.527c-0.21,0.053-0.447,0.078-0.712,0.078
		c-0.647,0-1.195-0.236-1.645-0.71s-0.674-1.137-0.674-1.99c0-0.84,0.227-1.522,0.679-2.046c0.453-0.524,1.045-0.786,1.776-0.786
		C38.996,11.338,39.354,11.425,39.7,11.599z M40.015,13.652c-0.036-0.381-0.118-0.685-0.247-0.913
		c-0.239-0.423-0.637-0.635-1.196-0.635c-0.4,0-0.736,0.146-1.007,0.437c-0.271,0.292-0.415,0.662-0.431,1.111H40.015z"/>
	<path fill="#0084CB" d="M45.217,11.455l1.006,4.121l1.021-4.121h0.986l1.025,4.097l1.069-4.097h0.879l-1.519,5.229h-0.913
		l-1.064-4.047l-1.03,4.047h-0.913l-1.509-5.229H45.217z"/>
	<path fill="#0084CB" d="M52.031,9.487h0.879v2.676c0.208-0.264,0.396-0.449,0.562-0.557c0.283-0.186,0.636-0.278,1.06-0.278
		c0.758,0,1.273,0.265,1.543,0.796c0.146,0.29,0.22,0.692,0.22,1.206v3.354h-0.903v-3.295c0-0.384-0.049-0.666-0.146-0.845
		c-0.16-0.287-0.459-0.43-0.898-0.43c-0.365,0-0.695,0.125-0.991,0.376s-0.444,0.724-0.444,1.421v2.773h-0.879V9.487z"/>
	<path fill="#0084CB" d="M61.382,11.977c0.462,0.449,0.693,1.109,0.693,1.98c0,0.842-0.204,1.539-0.611,2.088
		c-0.407,0.55-1.04,0.824-1.896,0.824c-0.714,0-1.282-0.243-1.702-0.729c-0.42-0.485-0.63-1.139-0.63-1.958
		c0-0.878,0.221-1.578,0.664-2.098c0.443-0.521,1.038-0.781,1.785-0.781C60.354,11.304,60.919,11.528,61.382,11.977z M60.836,15.452
		c0.214-0.44,0.321-0.931,0.321-1.471c0-0.487-0.077-0.884-0.232-1.19c-0.245-0.481-0.666-0.722-1.265-0.722
		c-0.531,0-0.917,0.205-1.159,0.615c-0.242,0.41-0.362,0.904-0.362,1.482c0,0.556,0.121,1.019,0.362,1.39
		c0.241,0.37,0.624,0.556,1.149,0.556C60.227,16.113,60.622,15.893,60.836,15.452z"/>
	<path fill="#0084CB" d="M65.859,11.479h0.859v0.693c0.176-0.238,0.369-0.421,0.578-0.552c0.297-0.195,0.646-0.293,1.048-0.293
		c0.594,0,1.098,0.227,1.513,0.681c0.414,0.454,0.622,1.103,0.622,1.946c0,1.139-0.299,1.953-0.897,2.441
		c-0.379,0.31-0.82,0.464-1.324,0.464c-0.396,0-0.727-0.086-0.995-0.259c-0.157-0.098-0.332-0.265-0.524-0.503v2.671h-0.879V11.479z
		 M69.166,15.578c0.273-0.343,0.409-0.857,0.409-1.541c0-0.417-0.061-0.775-0.181-1.074c-0.229-0.576-0.647-0.864-1.254-0.864
		c-0.611,0-1.029,0.304-1.254,0.913c-0.121,0.326-0.181,0.739-0.181,1.24c0,0.404,0.061,0.747,0.181,1.03
		c0.229,0.541,0.647,0.81,1.254,0.81C68.551,16.093,68.894,15.921,69.166,15.578z"/>
	<path fill="#0084CB" d="M71.519,9.512h0.879v7.172h-0.879V9.512z"/>
	<path fill="#0084CB" d="M76.519,13.519c0.202-0.026,0.337-0.11,0.405-0.253c0.039-0.078,0.059-0.191,0.059-0.338
		c0-0.301-0.106-0.519-0.319-0.654c-0.213-0.136-0.517-0.204-0.914-0.204c-0.458,0-0.783,0.125-0.975,0.373
		c-0.107,0.137-0.177,0.342-0.209,0.613h-0.82c0.016-0.646,0.225-1.096,0.626-1.349c0.402-0.253,0.868-0.379,1.397-0.379
		c0.614,0,1.114,0.117,1.497,0.352c0.38,0.234,0.571,0.599,0.571,1.094v3.012c0,0.092,0.019,0.165,0.056,0.22
		c0.038,0.056,0.116,0.083,0.237,0.083c0.039,0,0.083-0.002,0.132-0.007s0.101-0.013,0.156-0.022v0.649
		c-0.137,0.039-0.241,0.063-0.312,0.073s-0.169,0.015-0.293,0.015c-0.303,0-0.522-0.107-0.659-0.322
		c-0.072-0.113-0.122-0.274-0.151-0.483c-0.179,0.234-0.436,0.438-0.771,0.61c-0.335,0.173-0.705,0.259-1.108,0.259
		c-0.485,0-0.881-0.146-1.189-0.441c-0.308-0.294-0.461-0.662-0.461-1.104c0-0.484,0.151-0.86,0.454-1.126s0.7-0.431,1.191-0.493
		L76.519,13.519z M74.668,15.894c0.186,0.146,0.405,0.219,0.659,0.219c0.309,0,0.609-0.071,0.898-0.214
		c0.488-0.237,0.732-0.625,0.732-1.165v-0.707c-0.107,0.068-0.245,0.125-0.414,0.171s-0.335,0.078-0.497,0.098l-0.531,0.068
		c-0.318,0.042-0.558,0.109-0.718,0.2c-0.272,0.153-0.408,0.396-0.408,0.731C74.39,15.548,74.482,15.747,74.668,15.894z"/>
	<path fill="#0084CB" d="M82.546,11.455h0.972c-0.124,0.335-0.399,1.101-0.825,2.296c-0.319,0.899-0.586,1.632-0.801,2.198
		c-0.507,1.334-0.865,2.147-1.073,2.44c-0.208,0.292-0.566,0.438-1.073,0.438c-0.124,0-0.219-0.005-0.285-0.015
		c-0.067-0.01-0.149-0.027-0.247-0.054v-0.801c0.153,0.043,0.263,0.068,0.332,0.078c0.068,0.01,0.128,0.015,0.18,0.015
		c0.163,0,0.282-0.026,0.358-0.08c0.076-0.054,0.141-0.119,0.192-0.197c0.017-0.026,0.075-0.159,0.176-0.399
		c0.101-0.241,0.174-0.42,0.219-0.536l-1.934-5.383h0.996l1.401,4.259L82.546,11.455z"/>
	<path fill="#0084CB" d="M198.212,13.519c0.202-0.026,0.337-0.11,0.405-0.253c0.039-0.078,0.059-0.191,0.059-0.338
		c0-0.301-0.106-0.519-0.319-0.654c-0.213-0.136-0.518-0.204-0.913-0.204c-0.458,0-0.783,0.125-0.975,0.373
		c-0.107,0.137-0.178,0.342-0.21,0.613h-0.82c0.017-0.646,0.226-1.096,0.627-1.349s0.867-0.379,1.396-0.379
		c0.615,0,1.114,0.117,1.498,0.352c0.38,0.234,0.57,0.599,0.57,1.094v3.012c0,0.092,0.019,0.165,0.057,0.22
		c0.037,0.056,0.116,0.083,0.236,0.083c0.039,0,0.083-0.002,0.132-0.007s0.101-0.013,0.156-0.022v0.649
		c-0.137,0.039-0.241,0.063-0.312,0.073s-0.169,0.015-0.293,0.015c-0.303,0-0.522-0.107-0.659-0.322
		c-0.071-0.113-0.122-0.274-0.151-0.483c-0.179,0.234-0.437,0.438-0.771,0.61c-0.335,0.173-0.705,0.259-1.108,0.259
		c-0.485,0-0.881-0.146-1.189-0.441c-0.307-0.294-0.461-0.662-0.461-1.104c0-0.484,0.151-0.86,0.454-1.126s0.7-0.431,1.191-0.493
		L198.212,13.519z M196.362,15.894c0.186,0.146,0.405,0.219,0.659,0.219c0.31,0,0.608-0.071,0.898-0.214
		c0.488-0.237,0.732-0.625,0.732-1.165v-0.707c-0.107,0.068-0.245,0.125-0.414,0.171s-0.335,0.078-0.497,0.098l-0.531,0.068
		c-0.318,0.042-0.558,0.109-0.718,0.2c-0.272,0.153-0.408,0.396-0.408,0.731C196.083,15.548,196.176,15.747,196.362,15.894z"/>
	<path fill="#0084CB" d="M201.494,15.044c0.026,0.293,0.102,0.517,0.225,0.673c0.226,0.283,0.617,0.425,1.176,0.425
		c0.332,0,0.625-0.07,0.877-0.212c0.253-0.142,0.379-0.36,0.379-0.657c0-0.225-0.101-0.396-0.303-0.513
		c-0.129-0.072-0.384-0.155-0.765-0.249l-0.709-0.176c-0.453-0.111-0.787-0.234-1.003-0.371c-0.384-0.238-0.575-0.566-0.575-0.986
		c0-0.495,0.181-0.895,0.542-1.201s0.847-0.459,1.457-0.459c0.799,0,1.374,0.231,1.727,0.693c0.222,0.293,0.329,0.609,0.322,0.947
		h-0.83c-0.017-0.197-0.088-0.377-0.215-0.539c-0.207-0.23-0.565-0.345-1.075-0.345c-0.34,0-0.597,0.063-0.771,0.19
		s-0.263,0.293-0.263,0.501c0,0.227,0.115,0.409,0.345,0.545c0.133,0.081,0.328,0.152,0.587,0.214l0.592,0.142
		c0.644,0.153,1.075,0.301,1.294,0.444c0.342,0.225,0.513,0.578,0.513,1.06c0,0.465-0.179,0.868-0.536,1.206
		c-0.357,0.339-0.902,0.508-1.634,0.508c-0.788,0-1.346-0.177-1.674-0.529c-0.328-0.354-0.503-0.79-0.526-1.311H201.494z"/>
	<path fill="#0084CB" d="M208.75,9.487h0.879v2.676c0.208-0.264,0.396-0.449,0.562-0.557c0.283-0.186,0.637-0.278,1.06-0.278
		c0.759,0,1.272,0.265,1.543,0.796c0.146,0.29,0.22,0.692,0.22,1.206v3.354h-0.903v-3.295c0-0.384-0.049-0.666-0.146-0.845
		c-0.159-0.287-0.459-0.43-0.898-0.43c-0.364,0-0.695,0.125-0.991,0.376s-0.444,0.724-0.444,1.421v2.773h-0.879V9.487z"/>
	<path fill="#0084CB" d="M217.114,13.519c0.202-0.026,0.337-0.11,0.405-0.253c0.039-0.078,0.059-0.191,0.059-0.338
		c0-0.301-0.106-0.519-0.319-0.654c-0.213-0.136-0.518-0.204-0.913-0.204c-0.458,0-0.783,0.125-0.975,0.373
		c-0.107,0.137-0.178,0.342-0.21,0.613h-0.82c0.017-0.646,0.226-1.096,0.627-1.349s0.867-0.379,1.396-0.379
		c0.615,0,1.114,0.117,1.498,0.352c0.38,0.234,0.57,0.599,0.57,1.094v3.012c0,0.092,0.019,0.165,0.057,0.22
		c0.037,0.056,0.116,0.083,0.236,0.083c0.039,0,0.083-0.002,0.132-0.007s0.101-0.013,0.156-0.022v0.649
		c-0.137,0.039-0.241,0.063-0.312,0.073s-0.169,0.015-0.293,0.015c-0.303,0-0.522-0.107-0.659-0.322
		c-0.071-0.113-0.122-0.274-0.151-0.483c-0.179,0.234-0.437,0.438-0.771,0.61c-0.335,0.173-0.705,0.259-1.108,0.259
		c-0.485,0-0.881-0.146-1.189-0.441c-0.307-0.294-0.461-0.662-0.461-1.104c0-0.484,0.151-0.86,0.454-1.126s0.7-0.431,1.191-0.493
		L217.114,13.519z M215.263,15.894c0.186,0.146,0.405,0.219,0.659,0.219c0.31,0,0.608-0.071,0.898-0.214
		c0.488-0.237,0.732-0.625,0.732-1.165v-0.707c-0.107,0.068-0.245,0.125-0.414,0.171s-0.335,0.078-0.497,0.098l-0.531,0.068
		c-0.318,0.042-0.558,0.109-0.718,0.2c-0.272,0.153-0.408,0.396-0.408,0.731C214.985,15.548,215.078,15.747,215.263,15.894z"/>
	<path fill="#0084CB" d="M219.897,11.455h0.835v0.903c0.068-0.176,0.236-0.39,0.503-0.642s0.574-0.378,0.923-0.378
		c0.017,0,0.044,0.001,0.083,0.005s0.105,0.01,0.2,0.02v0.928c-0.052-0.01-0.1-0.016-0.145-0.02
		c-0.043-0.003-0.092-0.005-0.144-0.005c-0.442,0-0.783,0.143-1.021,0.427s-0.356,0.613-0.356,0.984v3.007h-0.879V11.455z"/>
	<path fill="#0084CB" d="M226.076,11.616c0.155,0.098,0.332,0.269,0.53,0.513V9.487h0.845v7.197h-0.791v-0.728
		c-0.204,0.322-0.446,0.556-0.725,0.698c-0.279,0.144-0.599,0.215-0.958,0.215c-0.581,0-1.083-0.245-1.509-0.734
		c-0.424-0.49-0.637-1.142-0.637-1.956c0-0.762,0.193-1.422,0.581-1.98s0.941-0.837,1.661-0.837
		C225.473,11.362,225.806,11.447,226.076,11.616z M224.114,15.537c0.236,0.377,0.615,0.566,1.137,0.566
		c0.405,0,0.737-0.175,0.999-0.524c0.26-0.35,0.391-0.852,0.391-1.506c0-0.661-0.135-1.15-0.403-1.467s-0.601-0.476-0.996-0.476
		c-0.44,0-0.797,0.169-1.071,0.508c-0.273,0.338-0.41,0.836-0.41,1.494C223.759,14.691,223.877,15.159,224.114,15.537z"/>
	<path fill="#0084CB" d="M234.345,13.519c0.202-0.026,0.337-0.11,0.405-0.253c0.039-0.078,0.059-0.191,0.059-0.338
		c0-0.301-0.106-0.519-0.319-0.654c-0.213-0.136-0.518-0.204-0.913-0.204c-0.458,0-0.783,0.125-0.975,0.373
		c-0.107,0.137-0.178,0.342-0.21,0.613h-0.82c0.017-0.646,0.226-1.096,0.627-1.349s0.867-0.379,1.396-0.379
		c0.615,0,1.114,0.117,1.498,0.352c0.38,0.234,0.57,0.599,0.57,1.094v3.012c0,0.092,0.019,0.165,0.057,0.22
		c0.037,0.056,0.116,0.083,0.236,0.083c0.039,0,0.083-0.002,0.132-0.007s0.101-0.013,0.156-0.022v0.649
		c-0.137,0.039-0.241,0.063-0.312,0.073s-0.169,0.015-0.293,0.015c-0.303,0-0.522-0.107-0.659-0.322
		c-0.071-0.113-0.122-0.274-0.151-0.483c-0.179,0.234-0.437,0.438-0.771,0.61c-0.335,0.173-0.705,0.259-1.108,0.259
		c-0.485,0-0.881-0.146-1.189-0.441c-0.307-0.294-0.461-0.662-0.461-1.104c0-0.484,0.151-0.86,0.454-1.126s0.7-0.431,1.191-0.493
		L234.345,13.519z M232.495,15.894c0.186,0.146,0.405,0.219,0.659,0.219c0.31,0,0.608-0.071,0.898-0.214
		c0.488-0.237,0.732-0.625,0.732-1.165v-0.707c-0.107,0.068-0.245,0.125-0.414,0.171s-0.335,0.078-0.497,0.098l-0.531,0.068
		c-0.318,0.042-0.558,0.109-0.718,0.2c-0.272,0.153-0.408,0.396-0.408,0.731C232.216,15.548,232.309,15.747,232.495,15.894z"/>
	<path fill="#0084CB" d="M237.626,15.044c0.026,0.293,0.102,0.517,0.225,0.673c0.226,0.283,0.617,0.425,1.176,0.425
		c0.332,0,0.625-0.07,0.877-0.212c0.253-0.142,0.379-0.36,0.379-0.657c0-0.225-0.101-0.396-0.303-0.513
		c-0.129-0.072-0.384-0.155-0.765-0.249l-0.709-0.176c-0.453-0.111-0.787-0.234-1.003-0.371c-0.384-0.238-0.575-0.566-0.575-0.986
		c0-0.495,0.181-0.895,0.542-1.201s0.847-0.459,1.457-0.459c0.799,0,1.374,0.231,1.727,0.693c0.222,0.293,0.329,0.609,0.322,0.947
		h-0.83c-0.017-0.197-0.088-0.377-0.215-0.539c-0.207-0.23-0.565-0.345-1.075-0.345c-0.34,0-0.597,0.063-0.771,0.19
		s-0.263,0.293-0.263,0.501c0,0.227,0.115,0.409,0.345,0.545c0.133,0.081,0.328,0.152,0.587,0.214l0.592,0.142
		c0.644,0.153,1.075,0.301,1.294,0.444c0.342,0.225,0.513,0.578,0.513,1.06c0,0.465-0.179,0.868-0.536,1.206
		c-0.357,0.339-0.902,0.508-1.634,0.508c-0.788,0-1.346-0.177-1.674-0.529c-0.328-0.354-0.503-0.79-0.526-1.311H237.626z"/>
	<path fill="#0084CB" d="M245.058,9.995h0.889v1.46h0.835v0.718h-0.835v3.413c0,0.183,0.062,0.305,0.186,0.366
		c0.068,0.036,0.183,0.054,0.342,0.054c0.042,0,0.088-0.001,0.137-0.003s0.105-0.008,0.171-0.017v0.698
		c-0.101,0.029-0.206,0.051-0.315,0.063c-0.108,0.014-0.227,0.02-0.354,0.02c-0.41,0-0.688-0.104-0.835-0.314
		s-0.22-0.482-0.22-0.818v-3.461h-0.708v-0.718h0.708V9.995z"/>
	<path fill="#0084CB" d="M247.661,9.487h0.879v2.676c0.208-0.264,0.396-0.449,0.562-0.557c0.283-0.186,0.637-0.278,1.06-0.278
		c0.759,0,1.272,0.265,1.543,0.796c0.146,0.29,0.22,0.692,0.22,1.206v3.354h-0.903v-3.295c0-0.384-0.049-0.666-0.146-0.845
		c-0.159-0.287-0.459-0.43-0.898-0.43c-0.364,0-0.695,0.125-0.991,0.376s-0.444,0.724-0.444,1.421v2.773h-0.879V9.487z"/>
	<path fill="#0084CB" d="M256.453,11.599c0.346,0.174,0.609,0.399,0.791,0.676c0.175,0.264,0.291,0.571,0.349,0.923
		c0.052,0.241,0.078,0.625,0.078,1.152h-3.804c0.017,0.532,0.141,0.959,0.373,1.28c0.232,0.322,0.593,0.482,1.08,0.482
		c0.456,0,0.819-0.151,1.091-0.456c0.151-0.176,0.259-0.38,0.322-0.613h0.864c-0.022,0.192-0.099,0.406-0.227,0.642
		c-0.129,0.235-0.272,0.429-0.431,0.578c-0.265,0.261-0.593,0.437-0.983,0.527c-0.211,0.053-0.448,0.078-0.713,0.078
		c-0.646,0-1.195-0.236-1.645-0.71c-0.45-0.474-0.675-1.137-0.675-1.99c0-0.84,0.227-1.522,0.68-2.046
		c0.452-0.524,1.045-0.786,1.775-0.786C255.749,11.338,256.106,11.425,256.453,11.599z M256.767,13.652
		c-0.035-0.381-0.118-0.685-0.247-0.913c-0.239-0.423-0.638-0.635-1.196-0.635c-0.399,0-0.735,0.146-1.007,0.437
		c-0.271,0.292-0.415,0.662-0.431,1.111H256.767z"/>
	<path fill="#0084CB" d="M262.053,11.455h0.971c-0.123,0.335-0.398,1.101-0.824,2.296c-0.319,0.899-0.586,1.632-0.801,2.198
		c-0.508,1.334-0.865,2.147-1.073,2.44c-0.209,0.292-0.566,0.438-1.073,0.438c-0.124,0-0.219-0.005-0.286-0.015
		c-0.066-0.01-0.148-0.027-0.246-0.054v-0.801c0.152,0.043,0.264,0.068,0.331,0.078c0.068,0.01,0.129,0.015,0.181,0.015
		c0.162,0,0.282-0.026,0.358-0.08s0.141-0.119,0.192-0.197c0.017-0.026,0.075-0.159,0.176-0.399c0.101-0.241,0.174-0.42,0.22-0.536
		l-1.934-5.383h0.996l1.4,4.259L262.053,11.455z"/>
	<path fill="#0084CB" d="M266.97,11.455l1.006,4.121l1.02-4.121h0.986l1.025,4.097l1.07-4.097h0.879l-1.52,5.229h-0.912
		l-1.064-4.047l-1.031,4.047h-0.912l-1.51-5.229H266.97z"/>
	<path fill="#0084CB" d="M277.573,11.977c0.462,0.449,0.693,1.109,0.693,1.98c0,0.842-0.204,1.539-0.611,2.088
		c-0.407,0.55-1.039,0.824-1.896,0.824c-0.714,0-1.281-0.243-1.702-0.729c-0.42-0.485-0.63-1.139-0.63-1.958
		c0-0.878,0.222-1.578,0.664-2.098c0.443-0.521,1.038-0.781,1.784-0.781C276.544,11.304,277.111,11.528,277.573,11.977z
		 M277.027,15.452c0.214-0.44,0.321-0.931,0.321-1.471c0-0.487-0.077-0.884-0.231-1.19c-0.245-0.481-0.667-0.722-1.266-0.722
		c-0.531,0-0.917,0.205-1.158,0.615s-0.362,0.904-0.362,1.482c0,0.556,0.121,1.019,0.362,1.39c0.241,0.37,0.624,0.556,1.149,0.556
		C276.417,16.113,276.813,15.893,277.027,15.452z"/>
	<path fill="#0084CB" d="M279.37,11.455h0.835v0.903c0.068-0.176,0.236-0.39,0.503-0.642s0.574-0.378,0.923-0.378
		c0.017,0,0.044,0.001,0.083,0.005s0.105,0.01,0.2,0.02v0.928c-0.052-0.01-0.1-0.016-0.145-0.02
		c-0.043-0.003-0.092-0.005-0.144-0.005c-0.442,0-0.783,0.143-1.021,0.427s-0.356,0.613-0.356,0.984v3.007h-0.879V11.455z"/>
	<path fill="#0084CB" d="M282.656,9.512h0.845v4.165l2.254-2.221h1.123l-2.011,1.944l2.123,3.285h-1.123l-1.645-2.661l-0.722,0.698
		v1.962h-0.845V9.512z"/>
	<path fill="#0084CB" d="M287.885,15.619h1.021v1.064h-1.021V15.619z"/>
</g>
<g>
	<g>
		<path fill="#0084CB" d="M114.204,21.06v-1.404H99.462v-1.404V14.04h2.106v-1.404h-2.106V8.424h14.742V7.02H99.462h-0.237
			c-0.346-0.729-1.041-1.26-1.869-1.379V5.616h-0.351h-0.351c0,0.775-0.629,1.404-1.404,1.404v0.702
			c0.775,0,1.404,0.629,1.404,1.404v3.119c-0.214,0.436-0.458,0.849-0.702,1.093c0.244,0.244,0.488,0.657,0.702,1.093v4.524
			c0,0.775-0.629,1.404-1.404,1.404v0.702c0.775,0,1.404,0.629,1.404,1.404h0.351h0.351v-0.025c0.828-0.119,1.523-0.65,1.869-1.379
			H114.204z"/>
		<polygon fill="#0084CB" points="102.27,11.232 102.27,12.636 102.27,14.04 102.27,15.444 102.27,18.954 105.078,18.954 
			105.078,15.444 105.078,14.04 105.078,12.636 105.078,11.232 105.078,9.126 102.27,9.126 		"/>
		<path fill="#0084CB" d="M102.27,6.318h2.808V3.51c0-0.776,0.629-1.404,1.404-1.404c0.775,0,1.404,0.629,1.404,1.404v2.106h0.702
			c0,0,0.702-0.702,3.51-0.702V4.212c-0.775,0-1.404-0.629-1.404-1.404c0-0.934-1.217-1.726-2.901-2.001
			c-0.512-0.238-1.027-0.522-1.312-0.807c-0.285,0.285-0.799,0.569-1.312,0.807c-1.684,0.276-2.901,1.067-2.901,2.001
			c0,0.776-0.629,1.404-1.404,1.404v0.702C101.642,4.914,102.27,5.543,102.27,6.318z"/>
		<path fill="#0084CB" d="M128.947,18.954v-4.212c0-0.54-0.203-1.031-0.537-1.404c0.334-0.373,0.537-0.865,0.537-1.404V9.126
			c0-1.163-0.943-2.106-2.106-2.106h-8.424v1.404h7.02c0.388,0,0.702,0.314,0.702,0.702v2.808c0,0.388-0.314,0.702-0.702,0.702
			H105.78v1.404h19.656c0.388,0,0.702,0.314,0.702,0.702v4.212c0,0.388-0.314,0.702-0.702,0.702h-7.02v1.404h8.424
			C128.004,21.06,128.947,20.118,128.947,18.954z"/>
		<path fill="#0084CB" d="M107.886,22.464v1.986c0,0.775-0.629,1.404-1.404,1.404c-0.775,0-1.404-0.629-1.404-1.404v-2.688h-2.808
			c0,0.775-0.629,1.404-1.404,1.404v0.702c0.775,0,1.404,0.629,1.404,1.404h0.007c0.089,0.787,1.041,1.458,2.39,1.781
			c0.646,0.269,1.435,0.648,1.815,1.027c0.38-0.379,1.169-0.759,1.815-1.027c1.349-0.323,2.301-0.994,2.39-1.781h0.007
			c0-0.775,0.629-1.404,1.404-1.404v-0.702c-2.808,0-3.51-0.702-3.51-0.702H107.886z"/>
	</g>
	<path fill="#0084CB" d="M114.914,25.272c0.089,0.787,1.041,1.458,2.39,1.781c0.646,0.269,1.435,0.648,1.815,1.027
		c0.38-0.379,1.169-0.759,1.815-1.027c1.35-0.323,2.301-0.994,2.39-1.781h0.007c0-0.775,0.629-1.404,1.404-1.404v-0.702
		c-2.808,0-3.51-0.702-3.51-0.702h-0.702v1.986c0,0.775-0.629,1.404-1.404,1.404c-0.775,0-1.404-0.629-1.404-1.404v-9.708h-2.808
		v7.02c0,0.775-0.621,1.404-1.397,1.404v0.702C114.285,23.868,114.914,24.497,114.914,25.272z"/>
	<path fill="#0084CB" d="M114.906,11.934h2.808V3.51c0-0.776,0.629-1.404,1.404-1.404c0.775,0,1.404,0.629,1.404,1.404v2.106h0.702
		c0,0,0.702-0.702,3.51-0.702V4.212c-0.775,0-1.404-0.629-1.404-1.404c0-0.934-1.217-1.726-2.901-2.001
		c-0.512-0.238-1.027-0.522-1.312-0.807c-0.284,0.285-0.799,0.569-1.311,0.807c-1.684,0.276-2.901,1.067-2.901,2.001
		c0,0.776-0.629,1.404-1.404,1.404v0.702c0.775,0,1.404,0.629,1.404,1.404V11.934z"/>
	<rect x="132.457" y="0" fill="#0084CB" width="0.702" height="28.08"/>
	<g>
		<path fill="#0084CB" d="M142.616,4.147c0.384-0.17,0.652-0.353,0.803-0.548c0.151-0.195,0.227-0.438,0.227-0.729
			c0-0.362-0.113-0.659-0.338-0.89c-0.374-0.384-1.038-0.577-1.993-0.577h-4.646v0.198l0.297,0.016c0.357,0,0.585,0.036,0.684,0.107
			c0.148,0.11,0.222,0.373,0.222,0.791v3.278c0,0.373-0.044,0.612-0.132,0.717c-0.11,0.132-0.379,0.198-0.807,0.198h-0.264v0.189
			h4.753c0.972,0,1.642-0.159,2.01-0.478c0.242-0.209,0.362-0.511,0.362-0.906C143.794,4.85,143.401,4.394,142.616,4.147z
			 M139.807,1.602h0.338c0.565,0,0.964,0.11,1.194,0.329c0.187,0.181,0.28,0.475,0.28,0.881c0,0.527-0.132,0.884-0.395,1.071
			c-0.159,0.115-0.415,0.173-0.766,0.173h-0.206h-0.445V1.602z M139.807,6.708V4.246l0.354,0.016c0.577,0,0.961,0.069,1.153,0.206
			c0.225,0.159,0.338,0.489,0.338,0.988c0,0.456-0.103,0.778-0.309,0.968c-0.206,0.19-0.531,0.284-0.976,0.284H139.807z"/>
		<path fill="#0084CB" d="M150.14,6.28c-0.464,0.286-0.968,0.428-1.512,0.428h-0.651V2.516c0-0.066-0.003-0.157-0.008-0.272
			c0-0.225,0.049-0.382,0.148-0.47c0.132-0.115,0.398-0.173,0.799-0.173h0.264V1.404h-4.341v0.198h0.264
			c0.368,0,0.616,0.048,0.745,0.144c0.129,0.096,0.194,0.29,0.194,0.581v3.468c0,0.395-0.059,0.647-0.177,0.754
			c-0.118,0.107-0.372,0.161-0.762,0.161h-0.264v0.189h6.919v-2.01h-0.181C151.083,5.531,150.604,5.995,150.14,6.28z"/>
		<path fill="#0084CB" d="M160.325,1.404h-2.636v0.198c0.818,0,1.227,0.494,1.227,1.483v1.458c0,0.89-0.206,1.518-0.618,1.886
			c-0.297,0.264-0.717,0.395-1.26,0.395c-0.428,0-0.754-0.119-0.976-0.358c-0.222-0.239-0.334-0.578-0.334-1.017V2.516
			c0-0.34,0.059-0.578,0.177-0.713c0.118-0.135,0.372-0.202,0.762-0.202h0.264V1.404h-4.349v0.198h0.296
			c0.318,0,0.538,0.047,0.659,0.14c0.165,0.126,0.247,0.384,0.247,0.774v2.15c0,0.961,0.258,1.628,0.774,2.001
			c0.379,0.275,0.95,0.412,1.713,0.412c1.082,0,1.845-0.206,2.29-0.618c0.401-0.373,0.601-0.988,0.601-1.845V3.084
			c0-0.912,0.387-1.406,1.161-1.483V1.404z"/>
		<path fill="#0084CB" d="M168.174,4.888h-0.181c-0.121,0.159-0.242,0.316-0.362,0.47c-0.329,0.368-0.67,0.662-1.021,0.881
			c-0.511,0.313-1.032,0.47-1.565,0.47h-0.651V4.114h0.214c0.434,0,0.818,0.162,1.153,0.486c0.11,0.104,0.231,0.264,0.362,0.478
			h0.198V2.961h-0.198c-0.203,0.335-0.424,0.578-0.663,0.729c-0.239,0.151-0.523,0.227-0.852,0.227h-0.214V1.602h0.865
			c0.379,0,0.733,0.082,1.063,0.247c0.285,0.143,0.568,0.357,0.848,0.642c0.208,0.209,0.461,0.511,0.758,0.906h0.173V1.404h-6.845
			v0.198h0.264c0.39,0,0.648,0.069,0.774,0.206c0.11,0.121,0.165,0.357,0.165,0.708v3.311c0,0.379-0.044,0.615-0.132,0.708
			c-0.104,0.115-0.374,0.173-0.807,0.173h-0.264v0.189h6.919V4.888z"/>
		<path fill="#0084CB" d="M141.825,16.243c-0.45,0.316-0.942,0.474-1.474,0.474c-0.511,0-0.884-0.269-1.12-0.807
			c-0.198-0.445-0.297-1.065-0.297-1.862c0-1.768,0.459-2.652,1.376-2.652c0.593,0,1.117,0.233,1.573,0.7
			c0.34,0.346,0.651,0.837,0.931,1.474l0.132-0.033l-0.107-2.29h-0.148c-0.143,0.143-0.262,0.243-0.358,0.301
			c-0.096,0.058-0.215,0.086-0.358,0.086h-0.099c-0.088,0-0.356-0.086-0.803-0.259c-0.448-0.173-0.836-0.259-1.166-0.259
			c-0.939,0-1.704,0.27-2.294,0.811c-0.59,0.541-0.885,1.234-0.885,2.08c0,0.851,0.316,1.557,0.947,2.117
			c0.631,0.56,1.414,0.84,2.348,0.84c0.631,0,1.205-0.159,1.721-0.478c0.373-0.231,0.703-0.538,0.988-0.922
			c0.159-0.209,0.277-0.406,0.354-0.593l-0.156-0.082C142.643,15.475,142.275,15.927,141.825,16.243z"/>
		<path fill="#0084CB" d="M145.062,16.156c0.692,0.538,1.631,0.807,2.817,0.807c1.164,0,2.067-0.28,2.71-0.84
			c0.588-0.516,0.881-1.189,0.881-2.018c0-0.906-0.354-1.631-1.063-2.175c-0.708-0.544-1.639-0.815-2.792-0.815
			c-1.115,0-2.001,0.283-2.66,0.848c-0.621,0.533-0.931,1.216-0.931,2.051C144.024,14.904,144.37,15.618,145.062,16.156z
			 M147.813,11.305c0.456,0,0.811,0.24,1.067,0.721c0.255,0.481,0.383,1.149,0.383,2.006c0,0.879-0.128,1.554-0.383,2.026
			c-0.255,0.472-0.616,0.708-1.083,0.708c-0.516,0-0.912-0.321-1.186-0.964c-0.214-0.499-0.321-1.093-0.321-1.779
			c0-0.89,0.156-1.579,0.469-2.067C147.033,11.522,147.385,11.305,147.813,11.305z"/>
		<path fill="#0084CB" d="M157.817,16.164c-0.464,0.285-0.968,0.428-1.512,0.428h-0.651V12.4c0-0.066-0.003-0.157-0.008-0.272
			c0-0.225,0.049-0.382,0.148-0.47c0.132-0.115,0.398-0.173,0.799-0.173h0.264v-0.198h-4.341v0.198h0.264
			c0.368,0,0.616,0.048,0.745,0.144c0.129,0.096,0.194,0.29,0.194,0.581v3.468c0,0.395-0.059,0.647-0.177,0.754
			c-0.118,0.107-0.372,0.161-0.762,0.161h-0.264v0.189h6.919v-2.01h-0.181C158.76,15.415,158.281,15.879,157.817,16.164z"/>
		<path fill="#0084CB" d="M167.235,14.772h-0.181c-0.494,0.642-0.973,1.106-1.437,1.392c-0.464,0.285-0.968,0.428-1.512,0.428
			h-0.651V12.4c0-0.066-0.003-0.157-0.008-0.272c0-0.225,0.049-0.382,0.148-0.47c0.132-0.115,0.398-0.173,0.799-0.173h0.263v-0.198
			h-4.341v0.198h0.264c0.368,0,0.616,0.048,0.745,0.144c0.129,0.096,0.194,0.29,0.194,0.581v3.468c0,0.395-0.059,0.647-0.177,0.754
			c-0.118,0.107-0.372,0.161-0.762,0.161h-0.264v0.189h6.919V14.772z"/>
		<path fill="#0084CB" d="M167.73,16.782h2.998v-0.189c-0.247-0.022-0.434-0.058-0.56-0.107c-0.379-0.159-0.588-0.469-0.626-0.931
			c-0.006-0.033,0-0.081,0.016-0.144c0.016-0.063,0.03-0.114,0.041-0.152h2.282l0.363,0.659c0.066,0.143,0.099,0.258,0.099,0.346
			c0,0.132-0.066,0.225-0.198,0.28c-0.082,0.033-0.192,0.049-0.329,0.049h-0.42v0.189h4.333v-0.189h-0.115
			c-0.428,0-0.73-0.112-0.906-0.338c-0.044-0.055-0.148-0.231-0.313-0.527l-2.578-4.588h-0.198l-2.282,4.036
			c-0.291,0.505-0.56,0.868-0.807,1.087c-0.247,0.22-0.513,0.33-0.799,0.33V16.782z M170.703,13.15l1.054,1.919h-2.1L170.703,13.15z
			"/>
		<path fill="#0084CB" d="M183.276,16.44c-0.167-0.101-0.306-0.265-0.416-0.49l-0.947-1.779c0.994-0.181,1.491-0.664,1.491-1.45
			c0-0.445-0.203-0.804-0.609-1.079c-0.352-0.236-0.739-0.354-1.161-0.354h-5.305v0.198h0.264c0.318,0,0.544,0.047,0.675,0.14
			c0.187,0.132,0.28,0.39,0.28,0.774l-0.016,3.278c0,0.401-0.044,0.648-0.132,0.741c-0.104,0.115-0.373,0.173-0.807,0.173h-0.264
			v0.189h4.127v-0.189c-0.022,0.011-0.047,0.018-0.074,0.021c-0.028,0.003-0.074,0.004-0.14,0.004c-0.198,0-0.363-0.055-0.494-0.165
			c-0.187-0.154-0.28-0.412-0.28-0.774v-1.491h0.445l1.433,2.595h2.611v-0.189C183.67,16.593,183.444,16.542,183.276,16.44z
			 M179.467,13.998v-2.512h0.445c0.511,0,0.876,0.118,1.096,0.354c0.187,0.198,0.28,0.502,0.28,0.914
			c0,0.829-0.434,1.244-1.301,1.244H179.467z"/>
		<path fill="#0084CB" d="M141.825,26.127c-0.45,0.316-0.942,0.474-1.474,0.474c-0.511,0-0.884-0.269-1.12-0.807
			c-0.198-0.445-0.297-1.065-0.297-1.861c0-1.768,0.459-2.652,1.376-2.652c0.593,0,1.117,0.233,1.573,0.7
			c0.34,0.346,0.651,0.837,0.931,1.474l0.132-0.033l-0.107-2.29h-0.148c-0.143,0.143-0.262,0.243-0.358,0.301
			c-0.096,0.058-0.215,0.087-0.358,0.087h-0.099c-0.088,0-0.356-0.087-0.803-0.259c-0.448-0.173-0.836-0.259-1.166-0.259
			c-0.939,0-1.704,0.27-2.294,0.811c-0.59,0.541-0.885,1.234-0.885,2.08c0,0.851,0.316,1.557,0.947,2.117
			c0.631,0.56,1.414,0.84,2.348,0.84c0.631,0,1.205-0.159,1.721-0.478c0.373-0.231,0.703-0.538,0.988-0.922
			c0.159-0.209,0.277-0.406,0.354-0.593l-0.156-0.082C142.643,25.359,142.275,25.811,141.825,26.127z"/>
		<path fill="#0084CB" d="M150.498,25.834l-0.947-1.779c0.994-0.181,1.491-0.664,1.491-1.45c0-0.445-0.203-0.804-0.609-1.079
			c-0.352-0.236-0.739-0.354-1.161-0.354h-5.305v0.198h0.264c0.318,0,0.544,0.047,0.676,0.14c0.187,0.132,0.28,0.39,0.28,0.774
			l-0.017,3.278c0,0.401-0.044,0.648-0.132,0.741c-0.104,0.115-0.374,0.173-0.807,0.173h-0.264v0.189h4.127v-0.189
			c-0.022,0.011-0.047,0.018-0.074,0.021c-0.028,0.003-0.074,0.004-0.14,0.004c-0.198,0-0.362-0.055-0.494-0.165
			c-0.187-0.154-0.28-0.412-0.28-0.774v-1.491h0.445l1.433,2.595h2.611v-0.189c-0.286,0-0.512-0.051-0.68-0.152
			C150.747,26.223,150.608,26.06,150.498,25.834z M147.105,23.882V21.37h0.445c0.511,0,0.876,0.118,1.095,0.354
			c0.187,0.198,0.28,0.502,0.28,0.914c0,0.829-0.434,1.244-1.301,1.244H147.105z"/>
		<path fill="#0084CB" d="M158.85,25.126c-0.33,0.368-0.67,0.662-1.021,0.881c-0.511,0.313-1.032,0.469-1.565,0.469h-0.651v-2.595
			h0.214c0.434,0,0.818,0.162,1.153,0.486c0.11,0.104,0.231,0.264,0.362,0.478h0.198v-2.117h-0.198
			c-0.203,0.335-0.424,0.578-0.663,0.729c-0.239,0.151-0.523,0.226-0.852,0.226h-0.214V21.37h0.865c0.379,0,0.733,0.082,1.062,0.247
			c0.286,0.143,0.568,0.357,0.848,0.642c0.209,0.209,0.461,0.511,0.758,0.906h0.173v-1.993h-6.845v0.198h0.264
			c0.39,0,0.648,0.069,0.774,0.206c0.11,0.121,0.165,0.357,0.165,0.708v3.311c0,0.379-0.044,0.615-0.132,0.708
			c-0.104,0.115-0.374,0.173-0.807,0.173h-0.264v0.189h6.919v-2.01h-0.181C159.092,24.816,158.971,24.972,158.85,25.126z"/>
		<path fill="#0084CB" d="M166.09,21.296c-0.373-0.082-0.818-0.124-1.334-0.124h-4.258v0.198h0.28c0.357,0,0.587,0.041,0.692,0.124
			c0.143,0.115,0.214,0.379,0.214,0.791l0.017,3.278c0,0.401-0.074,0.664-0.222,0.791c-0.11,0.093-0.343,0.14-0.7,0.14l-0.28-0.016
			v0.189h4.118c1.268,0,2.199-0.236,2.792-0.708c0.56-0.445,0.84-1.115,0.84-2.01c0-0.813-0.231-1.452-0.692-1.919
			C167.211,21.678,166.722,21.433,166.09,21.296z M164.353,26.477h-0.717V21.37h0.651c0.598,0,1.043,0.129,1.334,0.387
			c0.236,0.209,0.387,0.527,0.453,0.955c0.033,0.209,0.049,0.607,0.049,1.194c0,0.84-0.104,1.452-0.313,1.837
			C165.547,26.233,165.061,26.477,164.353,26.477z"/>
		<path fill="#0084CB" d="M169.311,21.37h0.264c0.351,0,0.596,0.056,0.733,0.169c0.137,0.113,0.206,0.361,0.206,0.745v3.278
			c0,0.373-0.044,0.612-0.132,0.717c-0.115,0.132-0.384,0.198-0.807,0.198h-0.264v0.189h4.341v-0.189h-0.264h-0.214
			c-0.258,0-0.434-0.044-0.527-0.132c-0.132-0.126-0.198-0.387-0.198-0.782v-3.278c0-0.401,0.077-0.662,0.231-0.783
			c0.11-0.088,0.346-0.132,0.708-0.132h0.264v-0.198h-4.341V21.37z"/>
		<path fill="#0084CB" d="M174.533,23.594h0.189c0.11-0.203,0.222-0.406,0.338-0.609c0.291-0.478,0.563-0.848,0.815-1.112
			c0.374-0.384,0.711-0.557,1.013-0.519l0.132,0.016v4.193c0,0.412-0.038,0.662-0.115,0.75c-0.099,0.11-0.373,0.165-0.824,0.165
			h-0.264v0.189h4.341v-0.189h-0.264c-0.329,0-0.552-0.038-0.667-0.115c-0.181-0.121-0.272-0.387-0.272-0.799V21.37h0.148
			c0.478,0,0.953,0.291,1.425,0.873c0.373,0.461,0.623,0.912,0.749,1.351h0.189v-2.422h-6.935V23.594z"/>
	</g>
</g>
</svg>
