<?xml version="1.0" encoding="utf-8"?>
<!-- Generator: Adobe Illustrator 17.0.0, SVG Export Plug-In . SVG Version: 6.00 Build 0)  -->
<!DOCTYPE svg PUBLIC "-//W3C//DTD SVG 1.1//EN" "http://www.w3.org/Graphics/SVG/1.1/DTD/svg11.dtd">
<svg version="1.1" id="Layer_1" xmlns="http://www.w3.org/2000/svg" xmlns:xlink="http://www.w3.org/1999/xlink" x="0px" y="0px"
	 width="244.385px" height="243.88px" viewBox="0 0 244.385 243.88" enable-background="new 0 0 244.385 243.88"
	 xml:space="preserve">
<g>
	<path fill="#FFFFFF" d="M157.332,31.073c0.292-0.818,0.323-1.491,0.094-2.019c-0.271-0.615-0.911-1.103-1.92-1.463l-0.882-0.314
		l-1.778,4.983l1.016,0.362C155.588,33.238,156.744,32.721,157.332,31.073z"/>
	<path fill="#FFFFFF" d="M223.471,77.735l5.983-15.266l-16.103-3.088l2.986-16.122l-16.396,0.015l-0.119-16.396l-16.097,3.118
		l-3.22-16.077l-15.216,6.108l-6.204-15.177l-13.785,8.877L136.335,0l-11.856,11.326L113.078-0.458l-9.498,13.365L90.155,3.493
		l-6.797,14.921l-14.964-6.703l-3.851,15.938L48.581,23.9l-0.765,16.378l-16.383-0.661l2.349,16.227L17.57,58.296l5.377,15.489
		L7.492,79.26l8.211,14.192l-14.14,8.301l10.749,12.381L0,124.962l12.898,10.123L2.856,148.047l14.581,7.5l-7.407,14.628
		l15.736,4.605l-4.505,15.765l16.323,1.543l-1.44,16.333l16.321-1.574l1.677,16.31l15.728-4.634l4.734,15.698l14.567-7.527
		l7.619,14.518l12.879-10.147l10.229,12.814l10.726-12.401l12.469,10.647l8.185-14.207l14.259,8.095l5.348-15.499l15.533,5.25
		l2.318-16.231l16.246,2.215l-0.795-16.377l16.372-0.899l-3.88-15.93l15.906-3.981l-6.825-14.908l14.865-6.92l-9.523-13.347
		l13.286-9.608l-11.877-11.304l11.228-11.949l-13.802-8.852l8.764-13.857L223.471,77.735z M226.673,63.996l-8.123,4.5
		c-1.284-2.321-2.655-4.604-4.115-6.845L226.673,63.996z M213.895,45.287l-7.125,5.956c-1.7-2.036-3.479-4.018-5.336-5.943
		L213.895,45.287z M197.807,29.335l-5.869,7.197c-2.054-1.678-4.176-3.287-6.364-4.826L197.807,29.335z M178.992,16.715
		l-4.401,8.177c-2.335-1.259-4.723-2.438-7.162-3.534L178.992,16.715z M158.128,7.884l-2.774,8.862
		c-2.531-0.794-5.099-1.5-7.702-2.115L158.128,7.884z M135.97,3.161l-1.047,9.227c-2.635-0.301-5.29-0.508-7.963-0.619L135.97,3.161
		z M113.318,2.716l0.718,9.259c-2.645,0.203-5.291,0.502-7.936,0.899L113.318,2.716z M90.992,6.565l2.457,8.955
		c-2.559,0.7-5.1,1.494-7.623,2.384L90.992,6.565z M69.797,14.57l4.107,8.329c-2.38,1.171-4.725,2.433-7.034,3.783L69.797,14.57z
		 M50.446,26.482l5.613,7.398c-2.114,1.602-4.178,3.285-6.188,5.05L50.446,26.482z M33.753,41.799l6.912,6.202
		c-1.773,1.973-3.481,4.016-5.12,6.129L33.753,41.799z M20.26,59.999l7.961,4.782c-1.368,2.273-2.658,4.602-3.868,6.988
		L20.26,59.999z M10.455,80.423l8.722,3.189c-0.913,2.491-1.739,5.022-2.476,7.593L10.455,80.423z M4.692,102.334l9.168,1.481
		c-0.425,2.618-0.757,5.261-0.994,7.925L4.692,102.334z M3.179,124.939l9.282-0.281c0.078,2.651,0.252,5.309,0.523,7.97
		L3.179,124.939z M5.971,147.422l9.061-2.032c0.578,2.589,1.252,5.165,2.022,7.727L5.971,147.422z M12.968,168.971l8.513-3.71
		c1.058,2.433,2.207,4.835,3.448,7.204L12.968,168.971z M23.916,188.806l7.657-5.254c1.499,2.188,3.082,4.33,4.749,6.422
		L23.916,188.806z M38.419,206.211l6.525-6.608c1.886,1.865,3.846,3.668,5.878,5.407L38.419,206.211z M55.955,220.557l5.156-7.723
		c2.205,1.475,4.47,2.874,6.795,4.197L55.955,220.557z M75.888,231.326l3.602-8.559c2.444,1.031,4.934,1.976,7.466,2.835
		L75.888,231.326z M97.498,238.128l1.917-9.086c2.595,0.549,5.218,1.007,7.868,1.371L97.498,238.128z M120.006,240.718l0.163-9.285
		c2.652,0.048,5.315,0.001,7.985-0.142L120.006,240.718z M142.597,239.001l-1.597-9.148c2.613-0.454,5.219-1.004,7.814-1.651
		L142.597,239.001z M164.455,233.041l-3.3-8.68c2.48-0.941,4.935-1.974,7.361-3.1L164.455,233.041z M184.79,223.052l-4.883-7.899
		c2.257-1.393,4.472-2.872,6.641-4.437L184.79,223.052z M202.867,209.396l-6.289-6.833c1.953-1.795,3.848-3.666,5.681-5.613
		L202.867,209.396z M218.033,192.565l-7.468-5.519c1.578-2.132,3.084-4.328,4.517-6.587L218.033,192.565z M229.741,173.169
		l-8.378-4.006c1.146-2.392,2.21-4.834,3.188-7.323L229.741,173.169z M228.582,149.559c0.673-2.566,1.255-5.164,1.745-7.794
		l7.239,10.142L228.582,149.559z M241.227,129.549l-9.267-0.606c0.175-2.647,0.255-5.309,0.239-7.983L241.227,129.549z
		 M240.591,106.902l-9.214,1.159c-0.329-2.632-0.754-5.261-1.276-7.884L240.591,106.902z M226.353,146.346
		c-6.621,27.79-23.668,51.338-48,66.307c-24.332,14.968-53.037,19.566-80.827,12.945c-27.79-6.621-51.338-23.668-66.306-48
		S11.653,124.56,18.274,96.77c6.621-27.79,23.668-51.338,48-66.306c24.332-14.969,53.037-19.566,80.827-12.945
		c27.79,6.621,51.338,23.668,66.306,48S232.974,118.556,226.353,146.346z M224.107,80.166l11.573,4.619l-8.828,2.882
		C226.031,85.144,225.116,82.643,224.107,80.166z"/>
	<path fill="#FFFFFF" d="M146.708,19.168c-27.349-6.516-55.599-1.992-79.545,12.74S26.44,69.814,19.924,97.163
		c-6.516,27.35-1.992,55.599,12.739,79.546s37.906,40.723,65.255,47.239c27.349,6.516,55.599,1.992,79.545-12.739
		c23.946-14.731,40.723-37.906,47.239-65.255c6.516-27.35,1.992-55.599-12.739-79.546C197.232,42.461,174.058,25.685,146.708,19.168
		z M173.122,37.668l0.869,0.528l-2.64,4.342l-0.869-0.528L173.122,37.668z M215.424,111.397l-0.072-1.015l3.909-0.276l0.072,1.015
		L215.424,111.397z M219.467,112.791l0.039,1.017l-3.948,0.153l-0.039-1.017L219.467,112.791z M215.213,108.841l-0.105-1.012
		l3.871-0.399l0.105,1.012L215.213,108.841z M214.926,106.298l-0.137-1.008l3.832-0.523l0.137,1.008L214.926,106.298z
		 M214.563,103.767l-0.171-1.003l3.794-0.646l0.171,1.003L214.563,103.767z M214.124,101.249l-0.204-0.997l3.755-0.769l0.204,0.997
		L214.124,101.249z M213.609,98.746l-0.238-0.989l3.717-0.892l0.238,0.989L213.609,98.746z M213.018,96.26l-0.27-0.981l3.678-1.015
		l0.27,0.981L213.018,96.26z M212.352,93.791l-0.304-0.971l3.64-1.139l0.304,0.971L212.352,93.791z M211.611,91.341l-0.337-0.96
		l3.602-1.262l0.336,0.96L211.611,91.341z M210.795,88.911l-0.369-0.948l3.563-1.385l0.369,0.948L210.795,88.911z M209.903,86.503
		l-0.4-0.935l3.525-1.508l0.4,0.935L209.903,86.503z M208.936,84.118l-0.431-0.921l3.486-1.631l0.431,0.921L208.936,84.118z
		 M207.895,81.758l-0.461-0.907l3.448-1.755l0.461,0.907L207.895,81.758z M206.779,79.423l-0.491-0.891l3.409-1.878l0.491,0.891
		L206.779,79.423z M205.588,77.116l-0.52-0.875l3.371-2.001l0.52,0.875L205.588,77.116z M204.324,74.837l-0.547-0.858l3.332-2.124
		l0.547,0.858L204.324,74.837z M202.984,72.587l-0.573-0.841l3.294-2.247l0.573,0.841L202.984,72.587z M201.57,70.366l-0.599-0.822
		l3.255-2.37l0.599,0.822L201.57,70.366z M200.093,68.198l-0.623-0.804l3.217-2.494l0.623,0.804L200.093,68.198z M198.557,66.083
		l-0.647-0.786l3.179-2.617l0.647,0.786L198.557,66.083z M196.961,64.021l-0.669-0.767l3.14-2.74l0.669,0.767L196.961,64.021z
		 M195.307,62.016l-0.69-0.748l3.102-2.863l0.69,0.748L195.307,62.016z M193.596,60.066l-0.71-0.729l3.063-2.987l0.71,0.729
		L193.596,60.066z M191.83,58.173l-0.73-0.709l3.025-3.11l0.73,0.709L191.83,58.173z M190.009,56.337l-0.747-0.69l2.986-3.233
		l0.748,0.69L190.009,56.337z M188.134,54.56l-0.765-0.671l2.948-3.356l0.765,0.671L188.134,54.56z M186.208,52.842l-0.78-0.653
		l2.91-3.48l0.781,0.653L186.208,52.842z M184.23,51.184l-0.796-0.634l2.871-3.602l0.796,0.634L184.23,51.184z M182.202,49.586
		l-0.81-0.616l2.833-3.726l0.81,0.616L182.202,49.586z M180.125,48.051l-0.824-0.598l2.795-3.849l0.824,0.598L180.125,48.051z
		 M178,46.577l-0.836-0.58l2.756-3.972l0.836,0.58L178,46.577z M175.829,45.167l-0.848-0.563l2.717-4.095l0.848,0.563
		L175.829,45.167z M173.612,43.82l-0.859-0.546l2.679-4.219l0.859,0.546L173.612,43.82z M215.61,115.516l3.986-0.03l0.008,1.017
		l-3.986,0.03L215.61,115.516z M219.647,118.19l-0.024,1.017l-4.024-0.094l0.024-1.017L219.647,118.19z M173.311,93.769
		l-72.798,44.784l-3.199-5.2l72.798-44.784c1.436-0.883,1.884-2.763,1.001-4.199l-6.398-10.4c-0.883-1.436-2.763-1.884-4.199-1.001
		l-25.999,15.994l-3.199-5.2l31.199-19.193c4.308-2.65,9.948-1.306,12.598,3.002l6.398,10.4c1.229,1.998,1.598,4.283,1.211,6.423
		c2.084,0.62,3.957,1.979,5.186,3.977l9.596,15.6c2.65,4.308,1.306,9.948-3.002,12.598l-31.199,19.193l-3.199-5.2l25.999-15.994
		c1.436-0.883,1.884-2.763,1.001-4.199l-9.596-15.6C176.627,93.334,174.747,92.886,173.311,93.769z M30.755,136.064l0.141,1.008
		l-4.788,0.669l-0.141-1.008L30.755,136.064z M25.735,135.077l-0.12-1.01l4.881-0.579l0.12,1.01L25.735,135.077z M31.091,138.628
		l0.162,1.005l-4.696,0.759l-0.162-1.005L31.091,138.628z M31.503,141.179l0.184,1l-4.603,0.848l-0.184-1L31.503,141.179z
		 M31.991,143.713l0.208,0.996l-4.51,0.938l-0.208-0.996L31.991,143.713z M32.556,146.232l0.231,0.991l-4.418,1.028l-0.231-0.991
		L32.556,146.232z M33.197,148.732l0.255,0.985l-4.325,1.118l-0.255-0.985L33.197,148.732z M33.913,151.213l0.279,0.979
		l-4.233,1.208l-0.279-0.979L33.913,151.213z M34.706,153.674l0.304,0.971l-4.14,1.298l-0.304-0.971L34.706,153.674z
		 M35.573,156.112l0.33,0.963l-4.047,1.387l-0.33-0.963L35.573,156.112z M36.516,158.528l0.356,0.953l-3.954,1.478l-0.356-0.953
		L36.516,158.528z M37.534,160.918l0.383,0.943l-3.862,1.567l-0.383-0.943L37.534,160.918z M38.627,163.284l0.41,0.932l-3.769,1.657
		l-0.41-0.932L38.627,163.284z M39.794,165.622l0.437,0.919l-3.676,1.747l-0.437-0.919L39.794,165.622z M41.037,167.931l0.464,0.905
		l-3.584,1.837l-0.464-0.905L41.037,167.931z M38.863,172.137l3.491-1.927l0.492,0.891l-3.491,1.927L38.863,172.137z
		 M40.332,174.452l3.399-2.017l0.519,0.875l-3.399,2.017L40.332,174.452z M45.167,174.609l0.547,0.858l-3.306,2.106l-0.547-0.858
		L45.167,174.609z M46.662,176.73l0.574,0.84l-3.213,2.196l-0.574-0.84L46.662,176.73z M48.216,178.798l0.601,0.821l-3.121,2.286
		l-0.601-0.821L48.216,178.798z M49.826,180.812l0.628,0.801l-3.028,2.376l-0.628-0.801L49.826,180.812z M51.493,182.772
		l0.654,0.779l-2.935,2.466l-0.654-0.779L51.493,182.772z M53.214,184.676l0.68,0.757l-2.843,2.556l-0.68-0.757L53.214,184.676z
		 M54.989,186.523l0.705,0.733l-2.75,2.646l-0.705-0.733L54.989,186.523z M56.817,188.314l0.73,0.709l-2.658,2.735l-0.73-0.709
		L56.817,188.314z M58.697,190.047l0.753,0.684l-2.565,2.825l-0.753-0.684L58.697,190.047z M60.627,191.721l0.776,0.658
		l-2.472,2.915l-0.776-0.658L60.627,191.721z M62.607,193.335l0.798,0.632l-2.38,3.005l-0.798-0.632L62.607,193.335z M64.636,194.89
		l0.818,0.605l-2.287,3.095l-0.818-0.605L64.636,194.89z M66.712,196.383l0.838,0.577l-2.194,3.185l-0.838-0.577L66.712,196.383z
		 M68.835,197.814l0.856,0.55l-2.102,3.275l-0.856-0.55L68.835,197.814z M71.002,199.182l0.874,0.522l-2.009,3.364l-0.874-0.522
		L71.002,199.182z M73.214,200.487l0.89,0.493l-1.916,3.455l-0.89-0.493L73.214,200.487z M75.469,201.726l0.905,0.465l-1.824,3.544
		l-0.905-0.465L75.469,201.726z M77.767,202.901l0.919,0.437l-1.731,3.634l-0.919-0.437L77.767,202.901z M80.105,204.01l0.931,0.41
		l-1.639,3.724l-0.931-0.41L80.105,204.01z M82.483,205.052l0.943,0.382l-1.546,3.814l-0.943-0.382L82.483,205.052z M84.9,206.025
		l0.954,0.355l-1.453,3.904l-0.954-0.355L84.9,206.025z M87.354,206.931l0.963,0.328l-1.361,3.994l-0.963-0.328L87.354,206.931z
		 M89.844,207.767l0.972,0.302l-1.268,4.084l-0.972-0.302L89.844,207.767z M92.37,208.533l0.979,0.276l-1.175,4.173l-0.979-0.276
		L92.37,208.533z M94.931,209.228l0.986,0.25l-1.083,4.263l-0.986-0.25L94.931,209.228z M97.524,209.852l0.992,0.226l-0.99,4.353
		l-0.992-0.226L97.524,209.852z M100.115,210.396l0.997,0.202l-0.897,4.443l-0.997-0.202L100.115,210.396z M102.685,210.858
		l1.002,0.178l-0.805,4.533l-1.002-0.178L102.685,210.858z M105.261,211.246l1.006,0.155l-0.712,4.623l-1.006-0.155L105.261,211.246
		z M107.841,211.559l1.009,0.132l-0.62,4.713l-1.009-0.133L107.841,211.559z M110.424,211.799l1.012,0.111l-0.527,4.802
		l-1.012-0.111L110.424,211.799z M113.01,211.967l1.013,0.09l-0.434,4.892l-1.013-0.09L113.01,211.967z M92.231,179.486
		c0.378,3.489-0.985,7.039-3.782,9.365l0.058,0.094l-1.3,0.8l-1.3,0.8c-1.767-2.872-5.527-3.768-8.399-2.001l-1.599-2.6
		c2.872-1.767,3.768-5.527,2.001-8.399l-10.306-16.753c-1.786-1.124-3.631-2.1-5.089-2.447c0.348-1.459,0.309-3.544,0.111-5.646
		l-7.107-11.553c-1.767-2.872-5.527-3.768-8.399-2.001l-1.599-2.6c2.872-1.767,3.768-5.527,2.001-8.399l1.3-0.8l1.3-0.8l0.058,0.094
		c3.337-1.448,7.12-1.064,10.064,0.847l0.877-0.539l54.599-33.588l3.199,5.2l-54.599,33.588l9.596,15.6l7.8-4.798l3.199,5.2
		l-7.8,4.798l9.596,15.6l3.199,5.2l54.599-33.588l3.199,5.2L92.231,179.486z M86.717,121.952l22.392,36.399l-10.4,6.398
		L76.318,128.35L86.717,121.952z M207.821,153.641l4.563,1.818l-0.377,0.945l-4.563-1.818L207.821,153.641z M208.481,152.211
		l0.357-0.953l4.524,1.695l-0.357,0.953L208.481,152.211z M209.453,149.804l0.337-0.96l4.486,1.572l-0.337,0.96L209.453,149.804z
		 M210.358,147.367l0.315-0.967l4.447,1.449l-0.315,0.967L210.358,147.367z M211.195,144.899l0.293-0.974l4.409,1.326l-0.293,0.974
		L211.195,144.899z M211.965,142.404l0.27-0.981l4.37,1.202l-0.27,0.981L211.965,142.404z M212.671,139.852l0.246-0.987l4.332,1.079
		l-0.246,0.987L212.671,139.852z M213.309,137.262l0.221-0.993l4.293,0.956l-0.221,0.993L213.309,137.262z M213.869,134.669
		l0.195-0.998l4.255,0.833l-0.195,0.998L213.869,134.669z M214.351,132.074l0.169-1.004l4.216,0.71l-0.169,1.004L214.351,132.074z
		 M214.755,129.478l0.141-1.008l4.178,0.586l-0.141,1.008L214.755,129.478z M215.082,126.883l0.113-1.011l4.14,0.463l-0.113,1.011
		L215.082,126.883z M215.331,124.289l0.084-1.014l4.101,0.34l-0.084,1.014L215.331,124.289z M215.503,121.699l0.054-1.016
		l4.063,0.217l-0.054,1.016L215.503,121.699z M147.01,35.6c0.264-0.136,0.538-0.6,0.821-1.392l2.349-6.465
		c0.273-0.767,0.271-1.344-0.009-1.732c-0.2-0.287-0.613-0.543-1.239-0.766l-0.518-0.184l0.137-0.383l10.484,3.74
		c0.856,0.305,1.541,0.809,2.054,1.511c0.613,0.824,0.76,1.683,0.441,2.577c-0.556,1.559-1.882,2.167-3.977,1.822l0.627,4.178
		c0.071,0.529,0.23,0.95,0.479,1.262c0.249,0.312,0.661,0.571,1.236,0.776l-0.137,0.383l-5.156-1.839l-1.004-6.149l-0.882-0.315
		l-1.053,2.952c-0.255,0.716-0.259,1.29-0.01,1.725c0.178,0.308,0.471,0.535,0.88,0.681c0.128,0.046,0.218,0.074,0.272,0.086
		c0.053,0.012,0.11,0.014,0.171,0.007l-0.137,0.383l-8.165-2.913l0.137-0.383l0.518,0.184
		C146.185,35.652,146.745,35.737,147.01,35.6z M131.303,29.957l6.015-7.639l0.422,0.065l3.885,10.337
		c0.288,0.799,0.514,1.294,0.677,1.484c0.29,0.347,0.817,0.579,1.581,0.696l0.221,0.034l-0.062,0.402l-8.99-1.385l0.062-0.402
		L136,33.686c0.281,0.043,0.508,0.044,0.679,0.002c0.298-0.064,0.47-0.243,0.515-0.538c0.029-0.188-0.003-0.426-0.096-0.715
		l-0.554-1.485l-4.727-0.728c-0.039,0.076-0.072,0.154-0.097,0.232c-0.081,0.166-0.119,0.283-0.116,0.353
		c-0.068,0.978,0.261,1.687,0.99,2.129c0.238,0.147,0.616,0.28,1.132,0.401l-0.062,0.402l-6.215-0.957l0.062-0.402
		c0.59,0.091,1.179-0.055,1.766-0.438C129.866,31.557,130.541,30.896,131.303,29.957z M114.59,32.477
		c0.238-0.224,0.344-0.756,0.319-1.597l-0.216-7.282c-0.018-0.597-0.169-0.996-0.453-1.198c-0.284-0.202-0.806-0.292-1.566-0.269
		l-0.549,0.016l-0.012-0.407l9.113-0.27l0.012,0.407l-0.549,0.016c-0.854,0.025-1.414,0.164-1.677,0.416
		c-0.185,0.182-0.27,0.524-0.255,1.025l0.016,0.549l0.261,8.788l1.363-0.041c1.152-0.034,2.201-0.364,3.146-0.989
		c0.945-0.625,1.92-1.625,2.924-2.998l0.386-0.011l0.125,4.21l-14.524,0.431l-0.012-0.407l0.549-0.016
		C113.819,32.826,114.352,32.702,114.59,32.477z M96.882,36.017l0.538-0.114c0.809-0.171,1.311-0.389,1.505-0.652
		c0.194-0.263,0.204-0.806,0.03-1.629l-1.509-7.127c-0.124-0.584-0.344-0.95-0.659-1.098c-0.315-0.148-0.845-0.144-1.588,0.014
		l-0.537,0.114l-0.084-0.398l8.919-1.889l0.084,0.398l-0.537,0.114c-0.836,0.177-1.362,0.413-1.577,0.709
		c-0.149,0.212-0.172,0.563-0.068,1.054l0.114,0.537l1.822,8.6l1.334-0.282c1.128-0.239,2.101-0.75,2.92-1.534
		c0.819-0.783,1.6-1.94,2.343-3.471l0.378-0.08l0.873,4.121l-14.215,3.011L96.882,36.017z M78.755,37.504
		c-0.676-1.614-0.628-3.186,0.143-4.715c0.828-1.641,2.318-2.912,4.47-3.814c2.252-0.943,4.277-1.174,6.075-0.691
		c1.798,0.483,3.067,1.606,3.805,3.37c0.676,1.614,0.658,3.152-0.054,4.612c-0.783,1.607-2.307,2.886-4.572,3.834
		c-2.315,0.97-4.358,1.211-6.128,0.725C80.725,40.338,79.478,39.231,78.755,37.504z M106.721,84.56
		c2.872-1.767,3.768-5.527,2.001-8.399c-2.128-3.459,0.574-9.163,6.183-14.021c1.355-2.047,2.614-4.274,3.019-5.976
		c1.702,0.405,4.257,0.285,6.695,0c6.864-2.815,13.174-2.656,15.302,0.804c1.767,2.872,5.527,3.768,8.399,2.001l1.599,2.6
		c-10.4,6.398-11.4,10.597-11.4,10.597l-2.6,1.599l-4.798-7.8c-1.767-2.872-5.527-3.768-8.399-2.001
		c-2.872,1.767-3.768,5.527-2.001,8.399l19.193,31.199l-10.4,6.398l-12.795-20.799c-1.767-2.872-5.527-3.768-8.399-2.001
		L106.721,84.56z M61.758,41.135c0.467-1.922,1.665-3.529,3.592-4.821c0.676-0.453,1.592-0.81,2.749-1.071s1.825-0.451,2.005-0.572
		l0.203-0.136c0.293-0.196,0.498-0.42,0.617-0.67c0.118-0.251,0.225-0.62,0.322-1.11l0.304-0.204l3.37,4.552l-0.225,0.249
		c-1.451-0.922-2.764-1.504-3.938-1.745c-1.577-0.331-2.975-0.089-4.192,0.727c-1.882,1.261-1.607,3.707,0.825,7.335
		c1.095,1.634,2.151,2.772,3.169,3.413c1.225,0.78,2.361,0.818,3.409,0.116c1.093-0.733,1.885-1.733,2.374-3
		c0.49-1.267,0.624-2.7,0.401-4.299l0.434-0.046c0.099,0.489,0.129,1.057,0.089,1.704c-0.057,1.182-0.311,2.266-0.76,3.253
		c-0.621,1.363-1.58,2.48-2.876,3.348c-1.916,1.284-3.907,1.786-5.973,1.505c-2.067-0.281-3.685-1.294-4.856-3.041
		C61.639,44.886,61.291,43.057,61.758,41.135z M93.122,85.758c1.767,2.872,5.527,3.768,8.399,2.001l1.599,2.6
		c-10.4,6.398-11.4,10.597-11.4,10.597l-2.6,1.599l-4.798-7.8c-1.767-2.872-5.527-3.768-8.399-2.001
		c-2.872,1.767-3.768,5.527-2.001,8.399l6.398,10.4l-10.4,6.398c-1.767-2.872-5.527-3.768-8.399-2.001l-1.599-2.6
		c2.872-1.767,3.768-5.527,2.001-8.399c-2.128-3.459,0.574-9.163,6.183-14.021c1.355-2.047,2.614-4.274,3.019-5.976
		c1.702,0.405,4.257,0.285,6.695,0C84.684,82.139,90.994,82.298,93.122,85.758z M51.405,50.584l3.161,2.753l-0.227,0.261
		c-1.584-0.102-2.789-0.072-3.614,0.091c-1.195,0.237-2.171,0.789-2.929,1.659l-1.189,1.366l3.668,3.194l0.294-0.338
		c0.864-0.992,1.058-2.227,0.581-3.704l0.281-0.322l3.346,2.913l-0.281,0.322c-0.516-0.089-0.931-0.118-1.247-0.087
		c-0.975,0.087-1.761,0.473-2.357,1.158l-0.294,0.338l4.097,3.568l0.895-1.028c0.739-0.849,1.212-1.887,1.415-3.112
		c0.142-0.865,0.149-1.803,0.022-2.814c-0.076-0.408-0.158-0.821-0.244-1.238l0.254-0.292l3.177,2.767l-9.542,10.957l-0.307-0.267
		l0.361-0.415c0.597-0.685,0.88-1.176,0.85-1.472c-0.03-0.296-0.347-0.707-0.951-1.232l-5.233-4.557
		c-0.552-0.481-1.002-0.719-1.347-0.715c-0.403,0.009-0.872,0.32-1.407,0.934l-0.361,0.414l-0.307-0.267L51.405,50.584z
		 M36.276,70.428l0.352,0.204l-0.275,0.475c-0.415,0.716-0.563,1.249-0.446,1.6c0.118,0.351,0.494,0.71,1.128,1.077l5.317,3.082
		c1.667,0.966,2.959,0.657,3.878-0.928c0.571-0.986,0.773-1.888,0.605-2.707c-0.234-1.139-1.154-2.175-2.762-3.107l-2.658-1.541
		c-1.796-1.041-3.126-0.816-3.99,0.675l-0.352-0.204l2.776-4.789L40.2,64.47c-0.676,1.49-0.186,2.715,1.469,3.674l2.799,1.623
		c1.561,0.905,2.471,1.919,2.73,3.041c0.277,1.227-0.156,2.826-1.3,4.798c-0.81,1.397-1.658,2.293-2.546,2.688
		c-1.225,0.544-2.712,0.31-4.461-0.704l-3.909-2.266c-0.704-0.408-1.259-0.533-1.664-0.377c-0.305,0.121-0.625,0.469-0.958,1.044
		l-0.316,0.546l-0.352-0.204L36.276,70.428z M28.584,86.464l0.384,0.135l-0.182,0.518c-0.283,0.806-0.355,1.378-0.215,1.715
		c0.104,0.238,0.392,0.44,0.866,0.606l0.518,0.182l8.294,2.916L38.7,91.25c0.382-1.088,0.452-2.185,0.208-3.292
		c-0.244-1.107-0.826-2.375-1.746-3.806l0.128-0.365l3.974,1.397l-4.82,13.707l-0.384-0.135l0.182-0.518
		c0.274-0.78,0.35-1.322,0.226-1.625c-0.123-0.302-0.582-0.593-1.376-0.872l-6.873-2.416c-0.563-0.198-0.99-0.201-1.281-0.008
		c-0.291,0.193-0.562,0.647-0.814,1.364l-0.182,0.518l-0.384-0.135L28.584,86.464z M21.576,104.747
		c0.33-2.337,1.03-3.896,2.099-4.677c0.642-0.471,1.406-0.644,2.293-0.519c0.712,0.101,1.28,0.369,1.705,0.806
		c0.425,0.437,0.779,1.155,1.062,2.154c0.876-1.835,2.127-2.638,3.752-2.409c0.967,0.137,1.664,0.537,2.091,1.2
		c0.652,1.01,0.81,2.704,0.474,5.082L33.41,118.01l-0.463-0.065l0.091-0.645c0.148-1.048,0.08-1.728-0.205-2.043
		c-0.225-0.251-0.794-0.441-1.707-0.57l-8.02-1.133c-1.02-0.144-1.691-0.054-2.011,0.271c-0.209,0.217-0.375,0.763-0.498,1.636
		l-0.143,0.72l-0.483-0.068L21.576,104.747z M25.143,128.701l5.066-0.399l0.08,1.014l-5.066,0.399L25.143,128.701z M25.341,131.388
		l4.973-0.489l0.1,1.013l-4.973,0.489L25.341,131.388z M115.562,220.417c-6.107-0.216-12.215-0.984-18.155-2.281
		c-26.033-5.687-47.914-21.083-61.614-43.352c-8.415-13.679-13.252-29.356-13.99-45.336l1.694-0.078
		c0.724,15.695,5.476,31.091,13.74,44.526c13.456,21.873,34.953,36.996,60.531,42.584c5.841,1.276,11.847,2.031,17.853,2.243
		L115.562,220.417z M116.27,217.113l-1.015-0.069l0.342-4.982l1.015,0.069L116.27,217.113z M138.807,213.408
		c-0.821-1.452-1.679-2.551-2.573-3.295c-1.199-1.004-2.506-1.436-3.921-1.294c-2.188,0.219-3.07,2.438-2.647,6.656
		c0.191,1.9,0.575,3.356,1.153,4.37c0.692,1.227,1.647,1.78,2.866,1.657c1.271-0.128,2.405-0.622,3.404-1.483
		c0.998-0.861,1.768-2.026,2.309-3.496l0.393,0.159c-0.139,0.464-0.373,0.964-0.703,1.5c-0.589,0.986-1.302,1.798-2.137,2.437
		c-1.155,0.883-2.486,1.401-3.992,1.552c-2.227,0.223-4.161-0.257-5.801-1.442c-1.641-1.185-2.563-2.793-2.767-4.823
		c-0.202-2.017,0.336-3.742,1.614-5.174c1.279-1.431,3.038-2.26,5.278-2.485c0.786-0.079,1.733,0.035,2.843,0.34
		c1.109,0.306,1.768,0.448,1.978,0.427l0.236-0.023c0.34-0.034,0.618-0.131,0.834-0.292c0.215-0.16,0.476-0.428,0.783-0.803
		l0.354-0.035l0.803,5.437L138.807,213.408z M155.178,208.246c0.46,1.539-0.23,2.775-2.067,3.708l2.888,2.909
		c0.359,0.374,0.725,0.612,1.099,0.713c0.374,0.102,0.844,0.067,1.412-0.102l0.113,0.378l-5.09,1.52l-4.315-4.235l-0.871,0.26
		l0.87,2.914c0.211,0.707,0.538,1.158,0.982,1.356c0.316,0.139,0.676,0.148,1.08,0.028c0.126-0.038,0.213-0.067,0.262-0.089
		c0.048-0.021,0.094-0.052,0.137-0.093l0.113,0.378l-8.061,2.407l-0.113-0.378l0.511-0.152c0.845-0.252,1.332-0.508,1.461-0.766
		c0.129-0.258,0.077-0.779-0.157-1.561l-1.872-6.407c-0.226-0.757-0.56-1.207-1.001-1.35c-0.321-0.11-0.792-0.073-1.41,0.112
		l-0.511,0.153l-0.113-0.378l10.351-3.09c0.845-0.252,1.67-0.251,2.474,0.003C154.305,206.776,154.914,207.363,155.178,208.246z
		 M170.898,201.83l-0.299,0.153c-1.39-0.664-2.486-1.071-3.289-1.223c-1.162-0.218-2.241-0.073-3.237,0.437l-1.564,0.801
		l2.151,4.201l0.387-0.198c1.137-0.582,1.757-1.624,1.86-3.127l0.369-0.189l1.962,3.832l-0.369,0.189
		c-0.433-0.267-0.796-0.443-1.092-0.529c-0.909-0.273-1.757-0.21-2.542,0.192l-0.387,0.198l2.403,4.693l1.178-0.603
		c0.973-0.498,1.772-1.262,2.398-2.293c0.441-0.728,0.786-1.571,1.036-2.527c0.079-0.395,0.154-0.796,0.227-1.203l0.334-0.171
		l1.863,3.639l-12.551,6.426l-0.18-0.352l0.475-0.243c0.785-0.402,1.217-0.742,1.297-1.019c0.08-0.277-0.057-0.762-0.411-1.453
		l-3.069-5.994c-0.324-0.633-0.642-1.009-0.956-1.13c-0.366-0.138-0.901-0.027-1.604,0.333l-0.475,0.243l-0.18-0.352l12.41-6.354
		L170.898,201.83z M146.304,160.557c-2.872,1.767-3.768,5.527-2.001,8.399l-0.027,0.017c1.464,3.116-0.532,7.77-4.795,12.04
		c-1.779,2.466-3.839,5.669-4.38,7.94c-2.27-0.541-6.059-0.147-9.062,0.329c-5.733,1.88-10.788,1.562-12.908-1.149l-0.027,0.017
		c-1.767-2.872-5.527-3.768-8.399-2.001l-1.599-2.6c2.872-1.767,3.768-5.527,2.001-8.399l10.4-6.398l6.124,9.954
		c1.767,2.872,5.527,3.768,8.399,2.001c2.872-1.767,3.768-5.527,2.001-8.399l-4.524-7.354l2.6-1.599c0,0,4.199,1.001,14.599-5.397
		L146.304,160.557z M187.853,196.394c-0.373,1.501-1.581,3.039-3.625,4.614l-6.648,5.124l-0.241-0.313l0.478-0.318
		c0.563-0.434,0.878-0.802,0.945-1.103c0.079-0.393-0.126-0.908-0.617-1.544l-4.106-5.263c-0.514-0.667-0.959-1.006-1.332-1.017
		c-0.271-0.007-0.694,0.211-1.268,0.653l-0.453,0.35l-0.241-0.313l6.867-5.292c0.876-0.675,1.649-1.171,2.319-1.488
		c1.17-0.553,2.262-0.763,3.278-0.632c1.311,0.17,2.477,0.917,3.498,2.241C187.823,193.541,188.205,194.975,187.853,196.394z
		 M192.523,193.936l-0.287-0.271l0.366-0.387c0.597-0.632,0.877-1.119,0.839-1.462c-0.026-0.279-0.317-0.68-0.872-1.205
		l-4.851-4.586c-0.564-0.533-1.046-0.781-1.446-0.742c-0.325,0.037-0.736,0.319-1.234,0.845l-0.366,0.388l-0.287-0.271l6.078-6.429
		l0.287,0.272l-0.366,0.388c-0.497,0.526-0.76,0.939-0.789,1.237c-0.035,0.402,0.244,0.883,0.837,1.443l4.851,4.586
		c0.584,0.552,1.052,0.823,1.406,0.813c0.261-0.007,0.567-0.197,0.92-0.571l0.339-0.359l0.366-0.387l0.287,0.271L192.523,193.936z
		 M202.18,183.125l-0.323-0.227l0.306-0.436c0.529-0.754,0.762-1.263,0.697-1.525c-0.065-0.263-0.437-0.632-1.116-1.109
		l-6.998-4.914l-0.175,0.215c-0.413,0.45-0.515,1.215-0.308,2.293c0.15,0.749,0.446,1.633,0.889,2.651
		c0.209,0.436,0.416,0.863,0.621,1.281l-0.227,0.323l-4.041-2.837l8.125-11.572l4.041,2.837l-0.227,0.323
		c-0.855-0.294-1.899-0.4-3.132-0.317c-1.54,0.109-2.583,0.551-3.128,1.327l-0.182,0.258l6.998,4.914
		c0.679,0.477,1.23,0.631,1.655,0.462c0.266-0.103,0.587-0.424,0.966-0.963l0.318-0.453l0.323,0.227L202.18,183.125z
		 M191.102,140.166l-0.027,0.017c1.464,3.116-0.532,7.77-4.795,12.04c-1.779,2.466-3.839,5.669-4.38,7.94
		c-2.27-0.541-6.059-0.147-9.062,0.329c-5.733,1.88-10.788,1.562-12.908-1.149c-1.767-2.872-5.527-3.768-8.399-2.001l-1.599-2.6
		c2.872-1.767,3.741-5.51,1.974-8.382l-15.994-25.999l10.4-6.398l22.118,35.954c1.767,2.872,5.527,3.768,8.399,2.001
		c2.872-1.767,3.768-5.527,2.001-8.399l-4.524-7.354l2.6-1.599c0,0,4.199,1.001,14.599-5.397l1.599,2.6
		C190.231,133.534,189.336,137.294,191.102,140.166z M206.344,156.929l0.396-0.937l4.601,1.942l-0.396,0.937L206.344,156.929z
		 M219.745,142.876c-1.52,5.886-3.589,11.684-6.15,17.233l-1.54-0.711c2.519-5.457,4.553-11.158,6.048-16.946
		c6.546-25.35,2.741-51.357-10.714-73.23c-8.264-13.434-19.865-24.618-33.547-32.342l0.834-1.477
		c13.931,7.865,25.742,19.251,34.157,32.93C222.533,90.602,226.408,117.075,219.745,142.876z"/>
	<path fill="#FFFFFF" d="M180.758,192.138c-1.072-0.57-2.29-0.329-3.656,0.724l-1.048,0.808l6.353,8.243l1.158-0.892
		c1.147-0.884,1.629-1.887,1.446-3.009c-0.141-0.872-0.733-1.986-1.778-3.342C182.171,193.293,181.346,192.449,180.758,192.138z"/>
	<polygon fill="#FFFFFF" points="134.787,26.19 132.001,29.837 136.366,30.51 	"/>
	<path fill="#FFFFFF" d="M147.642,207.858l-0.87,0.26l1.469,4.92l1.003-0.3c1.703-0.508,2.312-1.576,1.826-3.204
		c-0.241-0.807-0.603-1.352-1.086-1.634C149.419,207.575,148.638,207.561,147.642,207.858z"/>
	<path fill="#FFFFFF" d="M88.289,39.777c0.913-0.383,1.427-1.131,1.542-2.245c0.114-1.114-0.188-2.528-0.906-4.243
		c-0.692-1.652-1.483-2.839-2.374-3.561c-0.891-0.723-1.775-0.9-2.651-0.534c-0.814,0.341-1.314,1.043-1.501,2.106
		c-0.21,1.221,0.042,2.682,0.755,4.383c0.556,1.327,1.244,2.391,2.066,3.194C86.265,39.896,87.288,40.196,88.289,39.777z"/>
	<path fill="#FFFFFF" d="M28.169,108.556l-0.163,0.861l6.025,0.851l0.194-1.37c0.154-1.088,0.034-1.917-0.358-2.486
		c-0.392-0.569-1.146-0.933-2.261-1.09c-1.222-0.173-2.067-0.011-2.535,0.485C28.669,106.229,28.368,107.145,28.169,108.556z"/>
	<path fill="#FFFFFF" d="M27.697,108.263l0.071-0.504c0.121-0.859,0.069-1.504-0.158-1.934c-0.366-0.709-1.193-1.155-2.483-1.337
		c-0.994-0.141-1.745-0.013-2.253,0.38c-0.617,0.488-1.023,1.425-1.218,2.808l-0.117,0.826l6.005,0.848L27.697,108.263z"/>
</g>
</svg>
